<?xml version="1.0" encoding="UTF-8" standalone="no"?>
<svg
   data-v-fde0c5aa=""
   viewBox="0 0 220 57"
   class="iconLeft"
   version="1.1"
   id="svg4"
   width="220"
   height="57"
   xmlns="http://www.w3.org/2000/svg"
   xmlns:svg="http://www.w3.org/2000/svg">
  <!---->
  <defs
     data-v-fde0c5aa=""
     id="defs1">
    <!---->
  </defs>
  <defs
     data-v-fde0c5aa=""
     id="defs2">
    <!---->
  </defs>
  <defs
     data-v-fde0c5aa=""
     id="defs3">
    <!---->
  </defs>
  <g
     id="g4"
     transform="translate(-40,-121.5)">
    <g
       data-v-fde0c5aa=""
       id="ce1fff8b-476a-4cef-9d25-853b30cd67f6"
       fill="#ffffff"
       transform="matrix(2.8050161,0,0,2.8050161,97.056617,121.57116)"
       style="fill:#ffffff;fill-opacity:1">
      <path
         d="M 4.23,13.94 C 6.37,13.94 7.62,12.7 7.62,11.2 7.62,9.86 6.79,9.18 5.63,8.71 L 4.42,8.19 C 3.6,7.85 2.86,7.6 2.86,6.87 c 0,-0.7 0.58,-1.1 1.54,-1.1 0.85,0 1.48,0.29 2.1,0.8 L 7.34,5.54 C 6.58,4.8 5.53,4.37 4.4,4.37 c -1.87,0 -3.18,1.12 -3.18,2.59 0,1.34 0.99,2.07 1.97,2.45 l 1.25,0.54 c 0.91,0.37 1.52,0.61 1.52,1.38 0,0.74 -0.57,1.21 -1.7,1.21 -0.9,0 -1.81,-0.43 -2.5,-1.06 l -0.93,1.11 c 0.89,0.86 2.11,1.35 3.4,1.35 z m 7.46,0.02 c 0.94,0 1.85,-0.51 2.58,-1.08 h 0.05 l 0.13,0.9 h 1.3 V 9.52 c 0,-1.96 -1.04,-3.07 -2.94,-3.07 -1.19,0 -2.25,0.49 -2.86,1.01 l 0.59,1.07 c 0.49,-0.41 1.19,-0.77 1.96,-0.77 1.14,0 1.6,0.63 1.65,1.45 -3.4,0.27 -4.76,1.05 -4.76,2.66 0,1.23 0.97,2.09 2.3,2.09 z m 0.49,-1.28 c -0.69,0 -1.23,-0.28 -1.23,-0.93 0,-0.8 0.73,-1.35 3.2,-1.53 v 1.57 c -0.63,0.56 -1.28,0.89 -1.97,0.89 z m 7.81,1.1 h 1.6 V 7.91 h 2.62 V 6.64 H 21.59 V 6.33 c 0,-1.02 0.46,-1.6 1.51,-1.6 0.56,0 1.02,0.09 1.51,0.32 l 0.34,-1.19 c -0.62,-0.25 -1.3,-0.4 -2.03,-0.4 -2.03,0 -2.93,1.2 -2.93,2.9 V 6.64 L 18.1,6.72 v 1.19 h 1.89 z m 9.83,0.18 c 1.01,0 1.96,-0.37 2.69,-0.84 l -0.55,-1.01 c -0.61,0.38 -1.22,0.59 -1.93,0.59 -1.25,0 -2.21,-0.74 -2.31,-2.06 h 5 c 0.03,-0.18 0.07,-0.49 0.07,-0.8 0,-1.97 -1.14,-3.39 -3.18,-3.39 -1.81,0 -3.54,1.43 -3.54,3.76 0,2.35 1.66,3.75 3.75,3.75 z M 27.71,9.53 c 0.18,-1.19 1,-1.83 1.93,-1.83 1.09,0 1.68,0.69 1.68,1.83 z m 11.5,4.43 c 0.8,0 1.29,-0.18 1.96,-0.42 L 40.8,12.35 c -0.48,0.21 -0.84,0.29 -1.19,0.29 -0.7,0 -1.24,-0.38 -1.24,-1.34 V 3.63 H 34.61 V 4.9 h 2.17 v 6.3 c 0,1.75 0.84,2.76 2.43,2.76 z m 4.71,2.85 c 1.65,0 2.48,-0.99 3.06,-2.57 l 2.87,-7.6 h -1.51 l -1.26,3.57 c -0.22,0.67 -0.46,1.41 -0.67,2.1 H 46.35 C 46.1,11.59 45.84,10.85 45.58,10.21 L 44.17,6.64 h -1.61 l 3.09,7.07 -0.21,0.54 c -0.25,0.65 -0.74,1.28 -1.62,1.28 -0.2,0 -0.39,-0.03 -0.57,-0.09 l -0.31,1.23 c 0.26,0.09 0.61,0.14 0.98,0.14 z m 7.19,-3.03 h 1.7 l 0.89,-1.46 c 0.26,-0.43 0.51,-0.84 0.75,-1.26 h 0.05 l 0.86,1.26 0.99,1.46 h 1.74 L 55.58,10.22 57.92,6.64 H 56.24 L 55.41,8.01 C 55.2,8.4 54.96,8.83 54.74,9.23 H 54.68 C 54.43,8.83 54.15,8.41 53.93,8.02 l -0.9,-1.38 h -1.75 l 2.33,3.43 z"
         id="path2"
         style="fill:#ffffff;fill-opacity:1" />
    </g>
    <g
       data-v-fde0c5aa=""
       id="7de8bdb9-83fa-4171-875e-692b2e7fd41e"
       stroke="none"
       fill="#00A3DD"
       transform="matrix(0.60211357,0,0,0.60211357,32.545068,119.89456)"
       style="fill:#0091b6;fill-opacity:1">
      <path
         d="m 50.123,13.665 c -1.917,0 -8.432,0.09 -14.569,1.198 -0.753,3.264 -4.041,14.249 -14.254,15.037 -0.192,2.428 -0.454,8.75 1.004,16.565 3.675,0.878 14.169,3.029 28.596,2.97 V 13.671 c -0.084,0 -0.338,-0.006 -0.777,-0.006 z m 0.776,72.499 C 70.24,75.846 77.168,59.127 79.521,46.393 A 140.398,140.398 0 0 1 50.9,49.435 v 36.729 z"
         id="path3"
         style="fill:#00b2d4;fill-opacity:1" />
      <path
         d="M 89.052,23.537 C 74.169,23.537 71.275,5.069 71.275,5.069 61.587,3.152 50.9,3.362 50.9,3.362 c 0,0 -10.686,-0.21 -20.375,1.707 0,0 -2.895,18.468 -17.778,18.468 0,0 -6.791,49.736 38.153,73.107 C 95.844,73.273 89.052,23.537 89.052,23.537 Z M 51.493,88.766 50.899,89.075 50.303,88.766 C 13.672,69.715 18.792,28.889 18.851,28.479 l 0.152,-1.115 h 1.124 c 10.775,0 13.043,-13.667 13.067,-13.805 l 0.138,-0.889 0.884,-0.178 c 6.417,-1.269 13.262,-1.402 15.907,-1.402 0.474,0 0.753,0.004 0.795,0.004 0.003,0 0.283,-0.004 0.757,-0.004 2.646,0 9.487,0.134 15.907,1.402 l 0.882,0.178 0.142,0.889 c 0.091,0.562 2.322,13.805 13.066,13.805 h 1.125 l 0.151,1.115 c 0.057,0.41 5.179,41.236 -31.455,60.287 z"
         id="path4"
         style="fill:#0091b6;fill-opacity:1" />
    </g>
  </g>
  <!---->
</svg>
